<?xml version="1.0" encoding="UTF-8"?>
<!DOCTYPE svg PUBLIC "-//W3C//DTD SVG 1.1//EN" "http://www.w3.org/Graphics/SVG/1.1/DTD/svg11.dtd">
<!-- Creator: CorelDRAW -->
<svg xmlns="http://www.w3.org/2000/svg" xml:space="preserve" width="6.82666in" height="6.82666in" style="shape-rendering:geometricPrecision; text-rendering:geometricPrecision; image-rendering:optimizeQuality; fill-rule:evenodd; clip-rule:evenodd"
viewBox="0 0 6.82666 6.82666"
 xmlns:xlink="http://www.w3.org/1999/xlink">
 <defs>
  <style type="text/css">
   <![CDATA[
    .fil1 {fill:none}
    .fil2 {fill:none;fill-rule:nonzero}
    .fil0 {fill:#424242}
    .fil3 {fill:#FFFFFE;fill-rule:nonzero}
   ]]>
  </style>
 </defs>
 <rect class="fil0" width="6.82666" height="6.82666"/>
 <g id="Layer_x0020_1">
  <metadata id="CorelCorpID_0Corel-Layer"/>
  <g id="_425743976">
   <rect id="_425740376" class="fil1" width="6.82666" height="6.82666"/>
   <rect id="_425745848" class="fil1" x="0.853331" y="0.853331" width="5.12" height="5.12"/>
  </g>
  <line class="fil2" x1="1.09751" y1="2.24454" x2="1.09751" y2= "2.24454" />
  <line class="fil2" x1="0.888346" y1="2.2862" x2="0.888346" y2= "2.2862" />
  <line class="fil2" x1="1.57527" y1="1.52694" x2="1.57526" y2= "1.52694" />
  <line class="fil2" x1="1.5336" y1="1.31778" x2="1.53361" y2= "1.31778" />
  <path class="fil3" d="M3.39051 1.09227c0.179941,0.119866 0.314122,0.308161 0.359862,0.536457 0.0243622,0.121622 0.0210118,0.242492 -0.00561417,0.356197 -0.0271811,0.116071 -0.0789331,0.224669 -0.150441,0.318886l-0.814472 1.22271 -0.000429134 0.00042126c-0.0149134,0.0223504 -0.0340197,0.0413386 -0.0560315,0.0560906 -0.0224606,0.0150512 -0.0473819,0.0256339 -0.0734213,0.0308465 -0.0263189,0.00527559 -0.0532441,0.0051811 -0.079248,5.11811e-005 -0.0259567,-0.00511417 -0.0509606,-0.0153307 -0.0735,-0.0303228l-1.22022 -0.812909c-0.102878,-0.0591535 -0.193453,-0.140197 -0.264453,-0.238496 -0.0685669,-0.0949449 -0.118319,-0.205224 -0.14263,-0.326575l0 -7.87402e-006c-0.0457165,-0.228138 0.00542126,-0.453299 0.125051,-0.632913 0.119846,-0.179937 0.308122,-0.314098 0.536413,-0.359843l7.87402e-006 0c0.14587,-0.0292283 0.290713,-0.0185079 0.423421,0.0245118 0.0881063,0.028563 0.17063,0.0713307 0.244331,0.126055 0.0469213,-0.0789094 0.106555,-0.150146 0.176795,-0.210402 0.105913,-0.0908543 0.235547,-0.156579 0.381642,-0.18585 0.228138,-0.0457047 0.453311,0.00544094 0.632937,0.125094zm0.0117953 2.22456c-0.182343,0.121469 -0.318311,0.312272 -0.364661,0.543618 -0.024689,0.123236 -0.0212953,0.245724 0.00568898,0.360945 0.0275433,0.117618 0.0799843,0.227665 0.152445,0.323138l0.825339 1.23902 0.000437008 0.000433071c0.0151102,0.0226457 0.0344724,0.0418819 0.0567795,0.0568346 0.0227559,0.0152559 0.0480118,0.0259764 0.0744016,0.0312559 0.0266693,0.00534252 0.0539528,0.00525197 0.0803071,5.51181e-005 0.0262992,-0.00518504 0.0516339,-0.0155354 0.0744724,-0.0307283l1.2365 -0.823756c0.104252,-0.059937 0.196035,-0.142063 0.267984,-0.241677 0.0694803,-0.0962126 0.119894,-0.207965 0.144531,-0.330929l0 -7.87402e-006c0.0463228,-0.231185 -0.00549213,-0.459346 -0.12672,-0.641358 -0.121441,-0.182335 -0.312232,-0.318287 -0.543571,-0.364642l-7.87402e-006 0c-0.147811,-0.0296181 -0.294591,-0.0187559 -0.429067,0.0248386 -0.0892835,0.0289449 -0.172909,0.0722835 -0.247591,0.12774 -0.0475472,-0.0799646 -0.107976,-0.152154 -0.179154,-0.213213 -0.107331,-0.0920669 -0.238689,-0.158661 -0.386732,-0.188327 -0.231185,-0.0463189 -0.459358,0.00551181 -0.641382,0.12676z"/>
 </g>
</svg>
