<svg id="Layer_1" data-name="Layer 1" xmlns="http://www.w3.org/2000/svg" viewBox="0 0 512 512"><defs><style>.cls-1{fill:#ffefd6;}.cls-2{fill:#e2a379;}.cls-3{fill:#3d3c3c;}.cls-4{fill:#f4b382;}.cls-5{fill:#b3233b;}.cls-6{fill:#d6876b;}.cls-7{fill:#cc785e;}.cls-8{fill:#602f0f;}.cls-9{fill:#4c230c;}</style></defs><title>king dancer pose </title><path class="cls-1" d="M7.92,256C7.92,119,119,7.92,256,7.92S504.08,119,504.08,256,393,504.08,256,504.08,7.92,393,7.92,256Z"/><path class="cls-2" d="M438.4,188.22c-.8-3.66-25.69,5.39-25.69,5.39-34.36,5.15-50,11.55-50,11.55-20.69,2.15-58.08,11.28-65.43,14.27s-3,18.38,4.9,17.29,14.71-3,22.41-4.67,34.12-12.13,40.72-14.3c.91-.3,49.1-15.79,49.1-15.79a19.67,19.67,0,0,1,5.49,0C424.75,202.58,439.21,191.88,438.4,188.22Z"/><path class="cls-3" d="M225,244.3c-2.12-1.08-8.12-8-18.12-10.47-6-1.5-13.62-2.1-20.49-2.29-9.76-.27-10.21,39.1-3.56,42,10.73,4.67,32.26,6,38.9,6.05,4.52,0,10.69-20.45,10.69-20.45S227.07,245.38,225,244.3Z"/><path class="cls-3" d="M137.85,208.33s-22.07-6.52-24.12,4.17c-2.13,11.12,45,45.83,55.22,53s14.58,9.54,38.51,16.65c3.52-5.46,1.79-7.36,1.35-25.53C208.26,234.18,137.85,208.33,137.85,208.33Z"/><path class="cls-2" d="M198.19,101.87c3,2.8-6.85,17.21-7.16,20.36-.15,1.56,1.07,3.86-.52,7-2.09,4.07-6.51,4.56-7.18,6-3.44,7.61-12.1,23.31-16.38,32.45q-1.48,3.17-3.21,6.42c-4.67,8.79-19.57-6.24-17.57-9.24,8-12,27.76-34.48,31.14-38.48,0,0,8.07-13.76,10.29-16.82C188.95,107.72,195.16,99.07,198.19,101.87Z"/><path class="cls-3" d="M145.35,204.58c4-4.5,13.71-21.69,18.38-30.48-3.44-.54-15.4-7-17.56-9.23-2,3-34.38,38.5-32.53,49.23,1.35,7.78,12.44,4.48,21.46-.27A86.14,86.14,0,0,0,145.35,204.58Z"/><path class="cls-4" d="M219.35,430.52c-4-.93-19.1,0-20.61-.1-3.63-.14-7.14-2.1-6.43-5.51.54-2.59,1.79-4.91,1.63-6.53-.79-8.31-3.2-33.18-4-43.24q-.29-3.48-.4-7.17c-.31-9.95,20.08-4.3,19.84-.71-1,14.41-4.71,48.41-5.66,53.56,0,0,24.74,1.2,24.34,4.95C227.78,428.07,223.37,431.45,219.35,430.52Z"/><path class="cls-3" d="M192.35,335.61c-1.44,11.47-3.13,22.42-2.82,32.37,3.25-1.24,16.82-1.61,19.82-.71.25-3.59,4.84-31.3,4.84-31.3,1.09-8.77,10-60.41,7.7-76.45a71.14,71.14,0,0,0-2-10.83c-1.56-5.85-34.11-2.51-35.36,5.57,1.13,17.64,3.81,44.56,5.31,57.56C190.89,320.85,192.35,335.61,192.35,335.61Z"/><path class="cls-5" d="M301.42,244.08c4.2-11.14.89-18.81-2.27-33.89-.62-1.74-7-7.09-10.94-7.68-4.36-.65-9.11-.2-12.23,3.13-2.93,2.44-7.26,8.18-17.2,29-2.77,5.82-23.43,12.17-33.8,9.62,0,0-7.62,8.28-7.62,19.53,0,8.33,4.35,15.75,4.35,15.75,44.1-.67,60.43-8.78,71-27.48C292.74,252.1,299.38,249.5,301.42,244.08Z"/><path class="cls-2" d="M301.12,210.92A52.69,52.69,0,0,1,308,195.67l-11-7.78c-1.9,8.16-11.71,14.53-11.71,14.53,7.37,19.33,14.37,15.08,15.12,14.4Z"/><path class="cls-4" d="M318.83,177.41c3.54-5.3.87-10.32-1.06-13.15-6-8.77-12-9.34-19.67-8.87-10.14.62-12.37,27.57-11.21,32,3,11.57,19.46,15.17,26.09,15,7.29-.23,5.31-2.63,4.91-5.52,0-.11.32-.56.32-.56a8,8,0,0,1,.4-3.73,9.71,9.71,0,0,1-.37-1.37c0-.32,0-.52.34-.68a7.79,7.79,0,0,0,2.4-1.3C322.21,187.72,317.19,179.87,318.83,177.41Z"/><path class="cls-6" d="M314.33,194.06s.73.38,4,.21c.4-.21,1.07-.7.42-1.57C318.3,192,316.67,193.63,314.33,194.06Z"/><path class="cls-7" d="M314.33,194.06s.76,1.64,3.87,2.21a1.14,1.14,0,0,0,.81-.64,1.05,1.05,0,0,0-.64-1.36C315.06,194.44,314.33,194.06,314.33,194.06Z"/><path class="cls-8" d="M297.29,153.73c-12.37.75-27.78,19.58-9.64,39.56,1.21,1.33,3.9,2.84,7.56-.27a23.27,23.27,0,0,0,4.29-5q.74-1.27,1.58-2.77c.61-1.09-.56-7.15.69-7.42,12-2.64,16.79-9.38,16.59-12.63C316.43,157.5,310.49,152.93,297.29,153.73Z"/><path class="cls-4" d="M297.21,184.56c2.18,5.38,4.48,5.49,7.74,5l-2.36-8.41-1.87-3.32C297.47,178.32,295,179.19,297.21,184.56Z"/><path class="cls-9" d="M279.07,173.72c-3-2.3-2.06-8.35,2.18-13.52s10.14-7.51,13.18-5.21,1.62,6.91-2.62,12.09S282.1,176,279.07,173.72Z"/><path class="cls-8" d="M303.1,179a13.23,13.23,0,0,1-.32-2.62,10.58,10.58,0,0,1,.08-1.74l-3.52,1.51c0,.52.06,1.06.09,1.59l1-.41-.09,0a18.13,18.13,0,0,1,1.94,3.77S303.79,182.1,303.1,179Z"/><path class="cls-8" d="M277,173.49c-3.2-2.42-2-9,2.61-14.64s11-8.29,14.21-5.87,1.59,7.43-3.06,13.09S280.21,175.91,277,173.49Z"/><path class="cls-9" d="M278.38,162.38c-.36-.27.51-1.89,1.93-3.62s2.86-2.92,3.21-2.65-.44,1.57-1.86,3.3S278.74,162.65,278.38,162.38Z"/><path class="cls-4" d="M161.39,123.91c-2.54,2.75,10.38,12.09,13.2,16.05l5.91,1.95C204.38,167.15,218,176.4,218,176.4c13.59,15.74,41.61,40.28,48.27,44.6,4,2.68,17-13.75,12.75-17.75-7.12-5.5-10.25-6.12-16.6-11.06-5.81-5.34-30-21-35.58-25.12-.76-.57-40.46-31.36-40.46-31.36a19.6,19.6,0,0,1-3.1-4.53c-2.28-4.29-7.6-8.72-11.54-10A10.45,10.45,0,0,0,161.39,123.91Z"/><path class="cls-4" d="M172.13,135.52s-3.38-3.71-5.54-2.11c-1.81,1.34-2.28,2,8,6.56C174.61,140,175.5,138.75,172.13,135.52Z"/></svg>